<svg width="12" height="12" viewBox="0 0 12 12" fill="none" xmlns="http://www.w3.org/2000/svg">
<path d="M4.07578 9.31406C4.07578 9.36094 4.02187 9.39844 3.95391 9.39844C3.87656 9.40547 3.82266 9.36797 3.82266 9.31406C3.82266 9.26719 3.87656 9.22969 3.94453 9.22969C4.01484 9.22266 4.07578 9.26016 4.07578 9.31406ZM3.34688 9.20859C3.33047 9.25547 3.37734 9.30937 3.44766 9.32344C3.50859 9.34687 3.57891 9.32344 3.59297 9.27656C3.60703 9.22969 3.5625 9.17578 3.49219 9.15469C3.43125 9.13828 3.36328 9.16172 3.34688 9.20859ZM4.38281 9.16875C4.31484 9.18516 4.26797 9.22969 4.275 9.28359C4.28203 9.33047 4.34297 9.36094 4.41328 9.34453C4.48125 9.32812 4.52812 9.28359 4.52109 9.23672C4.51406 9.19219 4.45078 9.16172 4.38281 9.16875ZM5.925 0.1875C2.67422 0.1875 0.1875 2.65547 0.1875 5.90625C0.1875 8.50547 1.82344 10.7297 4.16016 11.5125C4.46016 11.5664 4.56563 11.3813 4.56563 11.2289C4.56563 11.0836 4.55859 10.282 4.55859 9.78984C4.55859 9.78984 2.91797 10.1414 2.57344 9.09141C2.57344 9.09141 2.30625 8.40937 1.92188 8.23359C1.92188 8.23359 1.38516 7.86562 1.95937 7.87266C1.95937 7.87266 2.54297 7.91953 2.86406 8.47734C3.37734 9.38203 4.2375 9.12187 4.57266 8.96719C4.62656 8.59219 4.77891 8.33203 4.94766 8.17734C3.6375 8.03203 2.31563 7.84219 2.31563 5.5875C2.31563 4.94297 2.49375 4.61953 2.86875 4.20703C2.80781 4.05469 2.60859 3.42656 2.92969 2.61562C3.41953 2.46328 4.54688 3.24844 4.54688 3.24844C5.01562 3.11719 5.51953 3.04922 6.01875 3.04922C6.51797 3.04922 7.02188 3.11719 7.49063 3.24844C7.49063 3.24844 8.61797 2.46094 9.10781 2.61562C9.42891 3.42891 9.22969 4.05469 9.16875 4.20703C9.54375 4.62187 9.77344 4.94531 9.77344 5.5875C9.77344 7.84922 8.39297 8.02969 7.08281 8.17734C7.29844 8.3625 7.48125 8.71406 7.48125 9.26484C7.48125 10.0547 7.47422 11.032 7.47422 11.2242C7.47422 11.3766 7.58203 11.5617 7.87969 11.5078C10.2234 10.7297 11.8125 8.50547 11.8125 5.90625C11.8125 2.65547 9.17578 0.1875 5.925 0.1875ZM2.46562 8.27109C2.43516 8.29453 2.44219 8.34844 2.48203 8.39297C2.51953 8.43047 2.57344 8.44688 2.60391 8.41641C2.63437 8.39297 2.62734 8.33906 2.5875 8.29453C2.55 8.25703 2.49609 8.24062 2.46562 8.27109ZM2.2125 8.08125C2.19609 8.11172 2.21953 8.14922 2.26641 8.17266C2.30391 8.19609 2.35078 8.18906 2.36719 8.15625C2.38359 8.12578 2.36016 8.08828 2.31328 8.06484C2.26641 8.05078 2.22891 8.05781 2.2125 8.08125ZM2.97188 8.91562C2.93438 8.94609 2.94844 9.01641 3.00234 9.06094C3.05625 9.11484 3.12422 9.12187 3.15469 9.08438C3.18516 9.05391 3.17109 8.98359 3.12422 8.93906C3.07266 8.88516 3.00234 8.87813 2.97188 8.91562ZM2.70469 8.57109C2.66719 8.59453 2.66719 8.65547 2.70469 8.70938C2.74219 8.76328 2.80547 8.78672 2.83594 8.76328C2.87344 8.73281 2.87344 8.67188 2.83594 8.61797C2.80312 8.56406 2.74219 8.54063 2.70469 8.57109Z" fill="white"/>
</svg>
