<svg width="10" height="12" viewBox="0 0 10 12" fill="none" xmlns="http://www.w3.org/2000/svg">
<g clip-path="url(#clip0_535_2)">
<path d="M7.15847 8.98015C7.42096 8.71096 7.84587 8.71166 8.10752 8.98172C8.36917 9.25178 8.36849 9.68893 8.10599 9.95813L6.94039 11.1535C5.86504 12.2563 4.11149 12.2723 3.01799 11.1906C3.01167 11.1844 2.52476 10.6941 0.918492 9.07643C-0.150119 8.00031 -0.256579 6.27836 0.749013 5.17258L2.62393 3.11075C3.62196 2.01318 5.4617 1.89321 6.60281 2.84096L8.30568 4.25535C8.59406 4.49487 8.6391 4.92956 8.40629 5.22626C8.17347 5.52295 7.75096 5.56928 7.46258 5.32976L5.75972 3.91538C5.16294 3.41973 4.11901 3.4878 3.60406 4.05412L1.72911 6.11596C1.23956 6.65429 1.29318 7.52151 1.85734 8.08964C3.03686 9.2775 3.9459 10.1929 3.94695 10.194C4.51546 10.7563 5.43469 10.7479 5.99287 10.1755L7.15847 8.98015Z" fill="white"/>
<path fill-rule="evenodd" clip-rule="evenodd" d="M4.32709 7.78392C3.95647 7.78392 3.65601 7.47481 3.65601 7.0935C3.65601 6.71219 3.95647 6.40308 4.32709 6.40308H9.27633C9.64695 6.40308 9.94741 6.71219 9.94741 7.0935C9.94741 7.47481 9.64695 7.78392 9.27633 7.78392H4.32709Z" fill="white"/>
<path fill-rule="evenodd" clip-rule="evenodd" d="M5.25378 0.218741C5.50699 -0.0597103 5.93167 -0.0742588 6.20231 0.186245C6.47296 0.44675 6.48711 0.88366 6.2339 1.16211L1.72913 6.11599C1.23957 6.65427 1.29318 7.52149 1.85731 8.08964L3.93768 10.1848C4.20253 10.4515 4.20707 10.8886 3.94781 11.1611C3.68854 11.4336 3.26366 11.4383 2.99881 11.1716L0.918429 9.0764C-0.15012 8.00023 -0.256579 6.27828 0.749058 5.17257L5.25378 0.218741Z" fill="white"/>
</g>
<defs>
<clipPath id="clip0_535_2">
<rect width="10" height="12" fill="white"/>
</clipPath>
</defs>
</svg>
