<svg width="12" height="12" viewBox="0 0 12 12" fill="none" xmlns="http://www.w3.org/2000/svg">
<path d="M11.1429 0H0.854464C0.383036 0 0 0.388393 0 0.865179V11.1348C0 11.6116 0.383036 12 0.854464 12H11.1429C11.6143 12 12 11.6116 12 11.1348V0.865179C12 0.388393 11.6143 0 11.1429 0ZM3.62679 10.2857H1.84821V4.55893H3.62946V10.2857H3.62679ZM2.7375 3.77679C2.16696 3.77679 1.70625 3.31339 1.70625 2.74554C1.70625 2.17768 2.16696 1.71429 2.7375 1.71429C3.30536 1.71429 3.76875 2.17768 3.76875 2.74554C3.76875 3.31607 3.30804 3.77679 2.7375 3.77679ZM10.2937 10.2857H8.51518V7.5C8.51518 6.83571 8.50179 5.98125 7.59107 5.98125C6.66429 5.98125 6.52232 6.70446 6.52232 7.45179V10.2857H4.74375V4.55893H6.45V5.34107H6.47411C6.7125 4.89107 7.29375 4.41696 8.15893 4.41696C9.95893 4.41696 10.2937 5.60357 10.2937 7.14643V10.2857Z" fill="white"/>
</svg>
